<?xml version="1.0" standalone="no"?>
<!DOCTYPE svg PUBLIC "-//W3C//DTD SVG 20010904//EN"
 "http://www.w3.org/TR/2001/REC-SVG-20010904/DTD/svg10.dtd">
<svg version="1.0" xmlns="http://www.w3.org/2000/svg"
 width="768.000000pt" height="768.000000pt" viewBox="0 0 768.000000 768.000000"
 preserveAspectRatio="xMidYMid meet">
<metadata>
Created by potrace 1.11, written by Peter Selinger 2001-2013
</metadata>
<g transform="translate(0.000000,768.000000) scale(0.100000,-0.100000)"
fill="#000000" stroke="none">
<path d="M653 7629 c-57 -17 -119 -92 -129 -154 -6 -42 -5 -7236 2 -7272 11
-62 37 -99 94 -136 36 -23 99 -30 220 -26 8 0 62 0 120 0 58 0 112 0 120 0 8
0 62 0 120 0 58 0 112 0 120 0 8 0 62 0 120 0 58 0 112 0 120 0 8 0 62 0 120
0 58 0 112 0 120 0 8 0 62 0 120 0 58 0 112 0 120 0 8 0 62 0 120 0 58 0 112
0 120 0 8 0 62 0 120 0 58 0 112 0 120 0 8 0 62 0 120 0 58 0 112 0 120 0 8 0
62 0 120 0 58 0 112 0 120 0 8 0 62 0 120 0 58 0 112 0 120 0 8 0 62 0 120 0
58 0 112 0 120 0 8 0 62 0 120 0 58 0 112 0 120 0 8 0 62 0 120 0 58 0 112 0
120 0 8 0 62 0 120 0 58 0 112 0 120 0 8 0 62 0 120 0 58 0 112 0 120 0 8 0
62 0 120 0 58 0 112 0 120 0 8 0 62 0 120 0 58 0 112 0 120 0 8 0 80 0 160 0
80 0 152 0 160 0 8 0 62 0 120 0 58 0 112 0 120 0 8 0 62 0 120 0 58 0 112 0
120 0 8 0 62 0 120 0 58 0 112 0 120 0 8 0 62 0 120 0 58 0 112 0 120 0 8 0
62 0 120 0 58 0 112 0 120 0 8 0 62 0 120 0 58 0 112 0 120 0 33 0 237 0 268
-1 102 -2 187 65 208 165 2 11 4 1643 5 3626 0 2723 -3 3617 -12 3652 -12 50
-65 107 -117 129 -20 8 -867 12 -3127 13 -1705 2 -3127 5 -3160 8 -33 4 -75 2
-92 -4z m6094 -408 c10 -1 12 -747 12 -3391 l0 -3389 -2919 0 -2919 0 0 3386
c0 1863 2 3389 4 3392 2 5 5774 7 5822 2z"/>
<path d="M3768 5245 c-2 -2 -30 -7 -63 -10 -71 -9 -200 -45 -270 -76 -27 -12
-53 -22 -57 -21 -5 1 -8 -2 -8 -6 0 -5 -16 -14 -35 -22 -19 -8 -35 -17 -35
-21 0 -4 -8 -10 -19 -14 -10 -3 -28 -13 -39 -23 -11 -9 -37 -30 -58 -47 -46
-36 -84 -75 -133 -135 -20 -25 -39 -47 -42 -50 -33 -28 -154 -269 -174 -350
-1 -3 -4 -12 -8 -20 -3 -8 -11 -35 -18 -60 -11 -44 -14 -60 -24 -110 -3 -14
-7 -36 -10 -50 -14 -64 -17 -134 -20 -379 -1 -145 1 -278 5 -295 5 -17 11 -51
14 -76 23 -180 86 -366 178 -520 28 -47 54 -87 57 -90 4 -3 17 -18 29 -35 41
-53 116 -127 172 -169 30 -22 57 -44 60 -48 3 -4 50 -29 105 -57 93 -46 209
-86 280 -96 17 -3 44 -8 60 -11 56 -12 251 -11 341 2 117 17 135 21 208 46
321 110 555 361 670 718 19 58 36 119 39 135 3 17 8 41 11 55 39 169 42 675 5
837 -6 26 -12 62 -15 80 -6 49 -71 236 -107 311 -49 98 -70 132 -150 236 -97
129 -283 255 -462 315 -87 29 -108 34 -191 47 -43 6 -291 14 -296 9z m222
-400 c138 -26 208 -59 299 -140 67 -60 156 -208 187 -310 16 -52 34 -127 39
-160 3 -22 7 -47 10 -55 8 -30 17 -198 17 -340 0 -180 -9 -313 -27 -390 -3
-14 -8 -38 -11 -55 -17 -94 -90 -271 -130 -316 -8 -8 -14 -19 -14 -23 0 -17
-122 -123 -172 -150 -118 -64 -272 -87 -423 -63 -194 31 -364 181 -452 398
-13 33 -26 68 -28 77 -2 10 -8 32 -14 50 -5 17 -7 32 -5 32 3 0 2 6 -2 12 -5
7 -9 19 -10 28 -1 8 -5 33 -8 55 -21 129 -27 435 -12 604 32 370 189 626 441
722 71 27 235 40 315 24z"/>
</g>
</svg>
